<?xml version="1.0" standalone="no"?>
<!DOCTYPE svg PUBLIC "-//W3C//DTD SVG 20010904//EN"
 "http://www.w3.org/TR/2001/REC-SVG-20010904/DTD/svg10.dtd">
<svg version="1.0" xmlns="http://www.w3.org/2000/svg"
 width="1600.000000pt" height="1600.000000pt" viewBox="0 0 1600.000000 1600.000000"
 preserveAspectRatio="xMidYMid meet">
<metadata>
Created by potrace 1.11, written by Peter Selinger 2001-2013
</metadata>
<g transform="translate(0.000000,1600.000000) scale(0.100000,-0.100000)"
fill="#000000" stroke="none">
<path d="M7144 14735 c-88 -19 -199 -68 -289 -127 -90 -59 -82 -51 -2490
-2416 l-1670 -1641 -1070 0 c-899 -1 -1081 -4 -1140 -16 -90 -19 -215 -81
-282 -140 -64 -56 -143 -172 -174 -256 l-24 -64 -3 -1928 c-3 -2137 -7 -1978
63 -2116 76 -149 198 -254 360 -309 l80 -27 1096 -5 1097 -5 1992 -1955 c1096
-1075 2020 -1979 2054 -2009 110 -96 230 -169 351 -212 93 -33 252 -38 343
-10 229 69 391 311 431 641 9 71 11 1609 9 6075 l-3 5980 -22 80 c-69 244
-218 407 -418 460 -71 18 -207 18 -291 0z"/>
<path d="M11631 14135 c-107 -30 -182 -75 -266 -160 -92 -92 -136 -166 -165
-281 -43 -167 -16 -324 83 -481 62 -100 137 -160 316 -252 679 -350 1291 -852
1763 -1447 652 -821 1042 -1783 1154 -2844 34 -328 29 -846 -12 -1195 -173
-1474 -934 -2802 -2119 -3698 -271 -205 -557 -382 -841 -522 -128 -63 -161
-85 -215 -138 -126 -125 -183 -261 -184 -437 0 -171 57 -309 176 -428 169
-168 402 -221 629 -145 54 18 310 154 509 271 865 506 1627 1225 2188 2067
558 836 915 1777 1052 2775 87 632 78 1339 -25 1970 -299 1826 -1347 3445
-2899 4477 -279 186 -679 411 -806 453 -85 29 -261 37 -338 15z"/>
<path d="M10300 12464 c-138 -36 -265 -126 -346 -245 -70 -104 -95 -179 -101
-309 -7 -130 6 -192 58 -301 48 -99 162 -220 248 -264 105 -52 317 -183 433
-266 538 -386 965 -910 1221 -1499 342 -786 397 -1661 157 -2491 -215 -743
-675 -1409 -1297 -1878 -129 -97 -343 -233 -460 -292 -244 -124 -373 -319
-373 -564 0 -262 167 -496 412 -576 61 -20 93 -24 198 -24 161 1 196 13 434
152 613 358 1085 777 1496 1328 482 645 799 1418 909 2218 33 241 44 402 44
667 0 264 -10 424 -44 667 -202 1466 -1082 2768 -2378 3522 -177 103 -252 139
-323 156 -79 19 -216 18 -288 -1z"/>
<path d="M8736 10475 c-195 -54 -369 -233 -421 -434 -20 -80 -21 -227 0 -305
36 -138 139 -279 258 -354 64 -41 121 -63 269 -107 245 -72 496 -257 640 -472
139 -207 208 -432 208 -678 0 -330 -121 -627 -350 -855 -145 -145 -317 -247
-520 -310 -225 -70 -339 -159 -425 -334 -88 -179 -84 -376 12 -558 97 -186
319 -318 533 -318 73 0 164 20 307 68 862 288 1497 1042 1638 1942 23 149 31
431 15 587 -71 731 -467 1388 -1083 1799 -197 132 -437 243 -669 310 -108 31
-131 34 -241 33 -69 0 -144 -7 -171 -14z"/>
</g>
</svg>
